<svg width="36" height="36" viewBox="0 0 36 36" fill="none" xmlns="http://www.w3.org/2000/svg">
<path d="M18.2039 3.37502C9.97874 3.26392 3.26389 9.97877 3.37499 18.2039C3.48467 26.0923 9.90772 32.5153 17.7961 32.625C26.0226 32.7375 32.7361 26.0227 32.6236 17.7975C32.5153 9.90775 26.0923 3.4847 18.2039 3.37502ZM24.6797 12.3216L18.8972 25.4363C18.5604 26.1724 17.4361 25.9285 17.4361 25.1156V18.8438C17.4361 18.7692 17.4064 18.6976 17.3537 18.6449C17.301 18.5921 17.2294 18.5625 17.1548 18.5625H10.8844C10.0744 18.5625 9.82967 17.4467 10.563 17.1092L23.6784 11.3203C23.8186 11.2556 23.9752 11.2354 24.1271 11.2625C24.2791 11.2896 24.4191 11.3627 24.5282 11.4718C24.6373 11.5809 24.7104 11.7209 24.7375 11.8729C24.7646 12.0248 24.7444 12.1814 24.6797 12.3216Z" fill="black"/>
</svg>
