<svg width="47" height="36" viewBox="0 0 47 36" fill="none" xmlns="http://www.w3.org/2000/svg">
<g clip-path="url(#clip0_103_45)">
<path d="M8.54445 35.8211V33.4384C8.54445 32.5248 7.98008 31.9293 7.01272 31.9293C6.52914 31.9293 6.00516 32.0881 5.64238 32.6044C5.36038 32.1675 4.95739 31.9293 4.35282 31.9293C3.94965 31.9293 3.54684 32.0483 3.22427 32.4852V32.0087H2.3779V35.8211H3.22427V33.7162C3.22427 33.0413 3.58705 32.7234 4.15141 32.7234C4.71541 32.7234 4.99778 33.0809 4.99778 33.7162V35.8211H5.84415V33.7162C5.84415 33.0413 6.24695 32.7234 6.77093 32.7234C7.3353 32.7234 7.6173 33.0809 7.6173 33.7162V35.8211H8.54445ZM21.0786 32.0087H19.7084V30.857H18.862V32.0087H18.0963V32.7631H18.8619V34.5106C18.8619 35.3844 19.2246 35.9005 20.192 35.9005C20.5548 35.9005 20.9576 35.7814 21.24 35.6226L20.998 34.9077C20.7562 35.0665 20.4742 35.1063 20.2726 35.1063C19.8696 35.1063 19.7084 34.8681 19.7084 34.4708V32.7631H21.0786V32.0087ZM28.2527 31.9291C27.7691 31.9291 27.4467 32.1675 27.2451 32.4852V32.0087H26.3988V35.8211H27.2451V33.6766C27.2451 33.0413 27.5271 32.6838 28.0511 32.6838C28.2123 32.6838 28.4139 32.7236 28.5751 32.7632L28.8169 31.9691C28.6557 31.9293 28.4139 31.9293 28.2527 31.9293M17.4111 32.3265C17.0079 32.0485 16.4438 31.9294 15.8392 31.9294C14.872 31.9294 14.2272 32.4059 14.2272 33.1605C14.2272 33.796 14.7108 34.1533 15.5572 34.2725L15.9602 34.3123C16.4035 34.3916 16.6453 34.5108 16.6453 34.7094C16.6453 34.9873 16.3229 35.1859 15.7586 35.1859C15.1944 35.1859 14.751 34.9873 14.4688 34.7888L14.0658 35.4242C14.5092 35.7418 15.1138 35.9007 15.7182 35.9007C16.8467 35.9007 17.4917 35.3845 17.4917 34.6696C17.4917 33.9945 16.9677 33.637 16.1616 33.518L15.7586 33.4782C15.3958 33.4384 15.1138 33.3591 15.1138 33.1209C15.1138 32.8428 15.3958 32.684 15.8392 32.684C16.3229 32.684 16.8065 32.8824 17.0483 33.0017L17.4111 32.3265ZM39.9004 31.9294C39.4167 31.9294 39.0943 32.1677 38.8927 32.4854V32.0089H38.0463V35.8212H38.8927V33.6768C38.8927 33.0415 39.1749 32.684 39.6987 32.684C39.86 32.684 40.0616 32.7238 40.2228 32.7634L40.4646 31.9692C40.3034 31.9294 40.0616 31.9294 39.9004 31.9294ZM29.0991 33.9151C29.0991 35.0667 29.905 35.9007 31.1546 35.9007C31.7188 35.9007 32.1217 35.7816 32.5247 35.464L32.1217 34.7888C31.7993 35.0271 31.477 35.1461 31.1142 35.1461C30.429 35.1461 29.9454 34.6696 29.9454 33.9151C29.9454 33.2003 30.429 32.7236 31.1142 32.684C31.477 32.684 31.7993 32.803 32.1217 33.0415L32.5247 32.3663C32.1217 32.0485 31.7188 31.9294 31.1546 31.9294C29.905 31.9294 29.0991 32.7634 29.0991 33.9151ZM36.9179 33.9151V32.0089H36.0716V32.4854C35.7894 32.1281 35.3864 31.9294 34.8624 31.9294C33.7743 31.9294 32.9279 32.7634 32.9279 33.9151C32.9279 35.0667 33.7743 35.9007 34.8624 35.9007C35.4266 35.9007 35.8298 35.7022 36.0716 35.3447V35.8212H36.9179V33.9151ZM33.8145 33.9151C33.8145 33.2399 34.2579 32.684 34.9832 32.684C35.6684 32.684 36.1522 33.2003 36.1522 33.9151C36.1522 34.5902 35.6684 35.1461 34.9832 35.1461C34.2579 35.1063 33.8145 34.5902 33.8145 33.9151ZM23.6985 31.9294C22.5699 31.9294 21.7637 32.7236 21.7637 33.9151C21.7637 35.1065 22.5697 35.9007 23.7387 35.9007C24.3028 35.9007 24.8672 35.7418 25.3106 35.3845L24.9074 34.7888C24.585 35.0271 24.182 35.1859 23.7791 35.1859C23.2551 35.1859 22.7311 34.9477 22.6101 34.2723H25.4718V33.9549C25.5122 32.7236 24.7868 31.9294 23.6985 31.9294ZM23.6983 32.6442C24.2221 32.6442 24.585 32.962 24.6654 33.5578H22.6503C22.7309 33.0415 23.0937 32.6442 23.6983 32.6442ZM44.6963 33.9151V30.4998H43.8499V32.4854C43.5677 32.1281 43.1647 31.9294 42.6407 31.9294C41.5526 31.9294 40.7062 32.7634 40.7062 33.9151C40.7062 35.0667 41.5526 35.9007 42.6407 35.9007C43.2051 35.9007 43.6081 35.7022 43.8499 35.3447V35.8212H44.6963V33.9151ZM41.593 33.9151C41.593 33.2399 42.0362 32.684 42.7617 32.684C43.4469 32.684 43.9305 33.2003 43.9305 33.9151C43.9305 34.5902 43.4469 35.1461 42.7617 35.1461C42.0362 35.1063 41.593 34.5902 41.593 33.9151ZM13.2999 33.9151V32.0089H12.4535V32.4854C12.1713 32.1281 11.7684 31.9294 11.2444 31.9294C10.1562 31.9294 9.30985 32.7634 9.30985 33.9151C9.30985 35.0667 10.1562 35.9007 11.2444 35.9007C11.8087 35.9007 12.2117 35.7022 12.4535 35.3447V35.8212H13.2999V33.9151ZM10.1562 33.9151C10.1562 33.2399 10.5996 32.684 11.325 32.684C12.0101 32.684 12.4939 33.2003 12.4939 33.9151C12.4939 34.5902 12.0101 35.1461 11.325 35.1461C10.5996 35.1063 10.1562 34.5902 10.1562 33.9151Z" fill="black"/>
<path d="M17.1289 3.05786H29.8244V25.5354H17.1289V3.05786Z" fill="#FF5F00"/>
<path d="M17.9351 14.2967C17.9351 9.72977 20.1114 5.67896 23.4565 3.05783C20.9982 1.15164 17.8949 0 14.5094 0C6.48875 0 0 6.39371 0 14.2967C0 22.1995 6.48875 28.5934 14.5092 28.5934C17.8947 28.5934 20.998 27.4418 23.4565 25.5354C20.1114 22.9541 17.9351 18.8636 17.9351 14.2967Z" fill="#EB001B"/>
<path d="M46.9534 14.2967C46.9534 22.1995 40.4646 28.5934 32.4441 28.5934C29.0587 28.5934 25.9554 27.4418 23.4969 25.5354C26.8824 22.9145 29.0185 18.8636 29.0185 14.2967C29.0185 9.72977 26.842 5.67896 23.4969 3.05783C25.9552 1.15164 29.0587 0 32.4441 0C40.4646 0 46.9534 6.43351 46.9534 14.2967Z" fill="#F79E1B"/>
</g>
<defs>
<clipPath id="clip0_103_45">
<rect width="47" height="36" fill="white"/>
</clipPath>
</defs>
</svg>
