<svg width="36" height="36" viewBox="0 0 36 36" fill="none" xmlns="http://www.w3.org/2000/svg">
<path d="M13.59 2.89496C10.755 2.87996 7.995 5.60996 9.255 8.99996H4.5C3.70435 8.99996 2.94129 9.31603 2.37868 9.87864C1.81607 10.4412 1.5 11.2043 1.5 12V15C1.5 15.3978 1.65804 15.7793 1.93934 16.0606C2.22064 16.3419 2.60218 16.5 3 16.5H16.5V12H19.5V16.5H33C33.3978 16.5 33.7794 16.3419 34.0607 16.0606C34.342 15.7793 34.5 15.3978 34.5 15V12C34.5 11.2043 34.1839 10.4412 33.6213 9.87864C33.0587 9.31603 32.2956 8.99996 31.5 8.99996H26.745C28.5 4.09496 21.9 0.629959 18.855 4.85996L18 5.99996L17.145 4.82996C16.2 3.49496 14.895 2.90996 13.59 2.89496ZM13.5 5.99996C14.835 5.99996 15.51 7.61996 14.565 8.56496C13.62 9.50996 12 8.83496 12 7.49996C12 7.10213 12.158 6.7206 12.4393 6.4393C12.7206 6.15799 13.1022 5.99996 13.5 5.99996ZM22.5 5.99996C23.835 5.99996 24.51 7.61996 23.565 8.56496C22.62 9.50996 21 8.83496 21 7.49996C21 7.10213 21.158 6.7206 21.4393 6.4393C21.7206 6.15799 22.1022 5.99996 22.5 5.99996ZM3 18V30C3 30.7956 3.31607 31.5587 3.87868 32.1213C4.44129 32.6839 5.20435 33 6 33H30C30.7956 33 31.5587 32.6839 32.1213 32.1213C32.6839 31.5587 33 30.7956 33 30V18H19.5V30H16.5V18H3Z" fill="black"/>
</svg>
