<svg width="36" height="36" viewBox="0 0 36 36" fill="none" xmlns="http://www.w3.org/2000/svg">
<g clip-path="url(#clip0_103_28)">
<path fill-rule="evenodd" clip-rule="evenodd" d="M4.61399 8.4255C4.72761 8.15147 4.91993 7.91728 5.16663 7.75255C5.41333 7.58781 5.70334 7.49993 5.99999 7.5H21C22.3789 7.5 23.7442 7.77159 25.0182 8.29926C26.2921 8.82694 27.4496 9.60036 28.4246 10.5754C29.3996 11.5504 30.1731 12.7079 30.7007 13.9818C31.2284 15.2557 31.5 16.6211 31.5 18C31.5 19.3789 31.2284 20.7443 30.7007 22.0182C30.1731 23.2921 29.3996 24.4496 28.4246 25.4246C27.4496 26.3996 26.2921 27.1731 25.0182 27.7007C23.7442 28.2284 22.3789 28.5 21 28.5H7.49999C7.10217 28.5 6.72064 28.342 6.43933 28.0607C6.15803 27.7794 5.99999 27.3978 5.99999 27C5.99999 26.6022 6.15803 26.2206 6.43933 25.9393C6.72064 25.658 7.10217 25.5 7.49999 25.5H21C22.9891 25.5 24.8968 24.7098 26.3033 23.3033C27.7098 21.8968 28.5 19.9891 28.5 18C28.5 16.0109 27.7098 14.1032 26.3033 12.6967C24.8968 11.2902 22.9891 10.5 21 10.5H9.62099L12.3105 13.1895C12.5837 13.4724 12.7349 13.8513 12.7315 14.2446C12.7281 14.6379 12.5703 15.0141 12.2922 15.2922C12.0141 15.5703 11.6379 15.7281 11.2446 15.7315C10.8513 15.7349 10.4724 15.5837 10.1895 15.3105L4.93949 10.0605C4.72959 9.85073 4.58663 9.58342 4.52869 9.29238C4.47075 9.00135 4.50043 8.69966 4.61399 8.4255Z" fill="black"/>
</g>
<defs>
<clipPath id="clip0_103_28">
<rect width="36" height="36" fill="white"/>
</clipPath>
</defs>
</svg>
